%TF.GenerationSoftware,KiCad,Pcbnew,10.0.0*%
%TF.CreationDate,2026-10-03T20:04:57-05:00*%
%TF.ProjectId,transceiver,7472616e-7363-4656-9976-65722e6b6963,rev?*%
%TF.SameCoordinates,Original*%
%TF.FileFunction,Profile,NP*%
%FSLAX46Y46*%
G04 Gerber Fmt 4.6, Leading zero omitted, Abs format (unit mm)*
G04 Created by KiCad (PCBNEW 10.0.0) date 2026-10-03 20:04:57*
%MOMM*%
%LPD*%
G01*
G04 APERTURE LIST*
%TA.AperFunction,Profile*%
%ADD10C,0.050000*%
%TD*%
G04 APERTURE END LIST*
D10*
X100513600Y-64993597D02*
G75*
G02*
X105593600Y-59913600I5080000J-3D01*
G01*
X100513600Y-92253600D02*
X100513600Y-64993597D01*
X100513600Y-117753601D02*
G75*
G02*
X103263599Y-115003600I2750000J1D01*
G01*
X100513602Y-145013600D02*
X100513600Y-117753601D01*
X103263597Y-95003600D02*
G75*
G02*
X100513600Y-92253600I3J2750000D01*
G01*
X103263599Y-115003600D02*
X103263597Y-95003600D01*
X105593600Y-59913600D02*
X135764599Y-59913600D01*
X105603600Y-150093598D02*
G75*
G02*
X100513602Y-145013600I-5000J5084998D01*
G01*
X135764599Y-59913600D02*
G75*
G02*
X138514600Y-62663599I1J-2750000D01*
G01*
X135764600Y-150093600D02*
X105603600Y-150093598D01*
X138514600Y-62663599D02*
X158514600Y-62663597D01*
X138514600Y-147343603D02*
G75*
G02*
X135764600Y-150093600I-2750000J3D01*
G01*
X158514600Y-62663597D02*
G75*
G02*
X161264600Y-59913600I2750000J-3D01*
G01*
X158514600Y-147343601D02*
X138514600Y-147343603D01*
X161264600Y-59913600D02*
X191408603Y-59913600D01*
X161264601Y-150093600D02*
G75*
G02*
X158514600Y-147343601I-1J2750000D01*
G01*
X191408600Y-150093600D02*
X161264601Y-150093600D01*
X191408603Y-59913600D02*
G75*
G02*
X196488600Y-64993600I-3J-5080000D01*
G01*
X193738594Y-95003606D02*
X193738603Y-115003600D01*
X193738603Y-115003600D02*
G75*
G02*
X196488600Y-117753600I-3J-2750000D01*
G01*
X196398596Y-92253603D02*
G75*
G02*
X193738594Y-95003596I-2704996J-44997D01*
G01*
X196488600Y-64993600D02*
X196398596Y-92253603D01*
X196488600Y-117753600D02*
X196488600Y-145013603D01*
X196488600Y-145013603D02*
G75*
G02*
X191408600Y-150093600I-5080000J3D01*
G01*
M02*
