%TF.GenerationSoftware,KiCad,Pcbnew,10.0.0*%
%TF.CreationDate,2026-10-03T20:04:56-05:00*%
%TF.ProjectId,transceiver,7472616e-7363-4656-9976-65722e6b6963,rev?*%
%TF.SameCoordinates,Original*%
%TF.FileFunction,Paste,Top*%
%TF.FilePolarity,Positive*%
%FSLAX46Y46*%
G04 Gerber Fmt 4.6, Leading zero omitted, Abs format (unit mm)*
G04 Created by KiCad (PCBNEW 10.0.0) date 2026-10-03 20:04:57*
%MOMM*%
%LPD*%
G01*
G04 APERTURE LIST*
G04 Aperture macros list*
%AMRoundRect*
0 Rectangle with rounded corners*
0 $1 Rounding radius*
0 $2 $3 $4 $5 $6 $7 $8 $9 X,Y pos of 4 corners*
0 Add a 4 corners polygon primitive as box body*
4,1,4,$2,$3,$4,$5,$6,$7,$8,$9,$2,$3,0*
0 Add four circle primitives for the rounded corners*
1,1,$1+$1,$2,$3*
1,1,$1+$1,$4,$5*
1,1,$1+$1,$6,$7*
1,1,$1+$1,$8,$9*
0 Add four rect primitives between the rounded corners*
20,1,$1+$1,$2,$3,$4,$5,0*
20,1,$1+$1,$4,$5,$6,$7,0*
20,1,$1+$1,$6,$7,$8,$9,0*
20,1,$1+$1,$8,$9,$2,$3,0*%
%AMFreePoly0*
4,1,9,3.862500,-0.866500,0.737500,-0.866500,0.737500,-0.450000,-0.737500,-0.450000,-0.737500,0.450000,0.737500,0.450000,0.737500,0.866500,3.862500,0.866500,3.862500,-0.866500,3.862500,-0.866500,$1*%
G04 Aperture macros list end*
%ADD10C,0.000000*%
%ADD11RoundRect,0.087500X-0.087500X0.662500X-0.087500X-0.662500X0.087500X-0.662500X0.087500X0.662500X0*%
%ADD12RoundRect,0.150000X-0.587500X-0.150000X0.587500X-0.150000X0.587500X0.150000X-0.587500X0.150000X0*%
%ADD13RoundRect,0.147500X0.147500X0.172500X-0.147500X0.172500X-0.147500X-0.172500X0.147500X-0.172500X0*%
%ADD14RoundRect,0.135000X-0.185000X0.135000X-0.185000X-0.135000X0.185000X-0.135000X0.185000X0.135000X0*%
%ADD15RoundRect,0.250000X-0.262500X-0.450000X0.262500X-0.450000X0.262500X0.450000X-0.262500X0.450000X0*%
%ADD16RoundRect,0.135000X0.135000X0.185000X-0.135000X0.185000X-0.135000X-0.185000X0.135000X-0.185000X0*%
%ADD17RoundRect,0.140000X-0.140000X-0.170000X0.140000X-0.170000X0.140000X0.170000X-0.140000X0.170000X0*%
%ADD18RoundRect,0.140000X0.140000X0.170000X-0.140000X0.170000X-0.140000X-0.170000X0.140000X-0.170000X0*%
%ADD19RoundRect,0.135000X0.185000X-0.135000X0.185000X0.135000X-0.185000X0.135000X-0.185000X-0.135000X0*%
%ADD20RoundRect,0.100000X-0.850000X-0.100000X0.850000X-0.100000X0.850000X0.100000X-0.850000X0.100000X0*%
%ADD21RoundRect,0.250000X0.250000X0.475000X-0.250000X0.475000X-0.250000X-0.475000X0.250000X-0.475000X0*%
%ADD22RoundRect,0.225000X-0.250000X0.225000X-0.250000X-0.225000X0.250000X-0.225000X0.250000X0.225000X0*%
%ADD23RoundRect,0.250000X-0.850000X-0.750000X0.850000X-0.750000X0.850000X0.750000X-0.850000X0.750000X0*%
%ADD24RoundRect,0.218750X-0.218750X-0.381250X0.218750X-0.381250X0.218750X0.381250X-0.218750X0.381250X0*%
%ADD25R,1.600000X3.200000*%
%ADD26RoundRect,0.250000X-1.000000X-0.650000X1.000000X-0.650000X1.000000X0.650000X-1.000000X0.650000X0*%
%ADD27RoundRect,0.150000X-0.150000X0.512500X-0.150000X-0.512500X0.150000X-0.512500X0.150000X0.512500X0*%
%ADD28RoundRect,0.150000X0.150000X-0.825000X0.150000X0.825000X-0.150000X0.825000X-0.150000X-0.825000X0*%
%ADD29R,2.540000X1.651000*%
%ADD30R,1.020000X1.980000*%
%ADD31RoundRect,0.250000X-0.475000X0.250000X-0.475000X-0.250000X0.475000X-0.250000X0.475000X0.250000X0*%
%ADD32RoundRect,0.218750X-0.218750X-0.256250X0.218750X-0.256250X0.218750X0.256250X-0.218750X0.256250X0*%
%ADD33RoundRect,0.250000X0.350000X-0.450000X0.350000X0.450000X-0.350000X0.450000X-0.350000X-0.450000X0*%
%ADD34RoundRect,0.140000X-0.170000X0.140000X-0.170000X-0.140000X0.170000X-0.140000X0.170000X0.140000X0*%
%ADD35RoundRect,0.225000X0.225000X0.250000X-0.225000X0.250000X-0.225000X-0.250000X0.225000X-0.250000X0*%
%ADD36RoundRect,0.225000X-0.225000X-0.250000X0.225000X-0.250000X0.225000X0.250000X-0.225000X0.250000X0*%
%ADD37RoundRect,0.200000X0.200000X0.275000X-0.200000X0.275000X-0.200000X-0.275000X0.200000X-0.275000X0*%
%ADD38RoundRect,0.135000X-0.135000X-0.185000X0.135000X-0.185000X0.135000X0.185000X-0.135000X0.185000X0*%
%ADD39RoundRect,0.200000X-0.200000X-0.275000X0.200000X-0.275000X0.200000X0.275000X-0.200000X0.275000X0*%
%ADD40RoundRect,0.150000X0.512500X0.150000X-0.512500X0.150000X-0.512500X-0.150000X0.512500X-0.150000X0*%
%ADD41RoundRect,0.218750X-0.256250X0.218750X-0.256250X-0.218750X0.256250X-0.218750X0.256250X0.218750X0*%
%ADD42RoundRect,0.075000X-0.075000X-0.225000X0.075000X-0.225000X0.075000X0.225000X-0.075000X0.225000X0*%
%ADD43RoundRect,0.150000X0.587500X0.150000X-0.587500X0.150000X-0.587500X-0.150000X0.587500X-0.150000X0*%
%ADD44RoundRect,0.140000X0.170000X-0.140000X0.170000X0.140000X-0.170000X0.140000X-0.170000X-0.140000X0*%
%ADD45RoundRect,0.140000X-0.021213X0.219203X-0.219203X0.021213X0.021213X-0.219203X0.219203X-0.021213X0*%
%ADD46RoundRect,0.150000X0.150000X-0.512500X0.150000X0.512500X-0.150000X0.512500X-0.150000X-0.512500X0*%
%ADD47RoundRect,0.147500X-0.172500X0.147500X-0.172500X-0.147500X0.172500X-0.147500X0.172500X0.147500X0*%
%ADD48R,0.500000X0.950000*%
%ADD49R,0.800000X0.950000*%
%ADD50RoundRect,0.218750X0.256250X-0.218750X0.256250X0.218750X-0.256250X0.218750X-0.256250X-0.218750X0*%
%ADD51RoundRect,0.250000X0.475000X-0.250000X0.475000X0.250000X-0.475000X0.250000X-0.475000X-0.250000X0*%
%ADD52RoundRect,0.225000X0.425000X0.225000X-0.425000X0.225000X-0.425000X-0.225000X0.425000X-0.225000X0*%
%ADD53FreePoly0,180.000000*%
%ADD54RoundRect,0.250000X-0.250000X-0.475000X0.250000X-0.475000X0.250000X0.475000X-0.250000X0.475000X0*%
%ADD55RoundRect,0.147500X-0.147500X-0.172500X0.147500X-0.172500X0.147500X0.172500X-0.147500X0.172500X0*%
%ADD56RoundRect,0.087500X0.087500X-0.425000X0.087500X0.425000X-0.087500X0.425000X-0.087500X-0.425000X0*%
G04 APERTURE END LIST*
D10*
%TO.C,U15*%
G36*
X119409755Y-107800961D02*
G01*
X119419134Y-107803806D01*
X119427779Y-107808427D01*
X119435355Y-107814645D01*
X119441573Y-107822221D01*
X119446194Y-107830866D01*
X119449039Y-107840245D01*
X119450000Y-107850000D01*
X119450000Y-108350000D01*
X119449039Y-108359755D01*
X119446194Y-108369134D01*
X119441573Y-108377779D01*
X119435355Y-108385355D01*
X119427779Y-108391573D01*
X119419134Y-108396194D01*
X119409755Y-108399039D01*
X119400000Y-108400000D01*
X119225000Y-108400000D01*
X119215245Y-108399039D01*
X119205866Y-108396194D01*
X119197221Y-108391573D01*
X119189645Y-108385355D01*
X119183427Y-108377779D01*
X119178806Y-108369134D01*
X119175961Y-108359755D01*
X119175000Y-108350000D01*
X119175000Y-107850000D01*
X119175961Y-107840245D01*
X119178806Y-107830866D01*
X119183427Y-107822221D01*
X119189645Y-107814645D01*
X119197221Y-107808427D01*
X119205866Y-107803806D01*
X119215245Y-107800961D01*
X119225000Y-107800000D01*
X119400000Y-107800000D01*
X119409755Y-107800961D01*
G37*
G36*
X119409755Y-108163461D02*
G01*
X119419134Y-108166306D01*
X119427779Y-108170927D01*
X119435355Y-108177145D01*
X119441573Y-108184721D01*
X119446194Y-108193366D01*
X119449039Y-108202745D01*
X119450000Y-108212500D01*
X119450000Y-108362500D01*
X119449039Y-108372255D01*
X119446194Y-108381634D01*
X119441573Y-108390279D01*
X119435355Y-108397855D01*
X119427779Y-108404073D01*
X119419134Y-108408694D01*
X119409755Y-108411539D01*
X119400000Y-108412500D01*
X118850000Y-108412500D01*
X118840245Y-108411539D01*
X118830866Y-108408694D01*
X118822221Y-108404073D01*
X118814645Y-108397855D01*
X118808427Y-108390279D01*
X118803806Y-108381634D01*
X118800961Y-108372255D01*
X118800000Y-108362500D01*
X118800000Y-108212500D01*
X118800961Y-108202745D01*
X118803806Y-108193366D01*
X118808427Y-108184721D01*
X118814645Y-108177145D01*
X118822221Y-108170927D01*
X118830866Y-108166306D01*
X118840245Y-108163461D01*
X118850000Y-108162500D01*
X119400000Y-108162500D01*
X119409755Y-108163461D01*
G37*
G36*
X119409755Y-109588461D02*
G01*
X119419134Y-109591306D01*
X119427779Y-109595927D01*
X119435355Y-109602145D01*
X119441573Y-109609721D01*
X119446194Y-109618366D01*
X119449039Y-109627745D01*
X119450000Y-109637500D01*
X119450000Y-109787500D01*
X119449039Y-109797255D01*
X119446194Y-109806634D01*
X119441573Y-109815279D01*
X119435355Y-109822855D01*
X119427779Y-109829073D01*
X119419134Y-109833694D01*
X119409755Y-109836539D01*
X119400000Y-109837500D01*
X118850000Y-109837500D01*
X118840245Y-109836539D01*
X118830866Y-109833694D01*
X118822221Y-109829073D01*
X118814645Y-109822855D01*
X118808427Y-109815279D01*
X118803806Y-109806634D01*
X118800961Y-109797255D01*
X118800000Y-109787500D01*
X118800000Y-109637500D01*
X118800961Y-109627745D01*
X118803806Y-109618366D01*
X118808427Y-109609721D01*
X118814645Y-109602145D01*
X118822221Y-109595927D01*
X118830866Y-109591306D01*
X118840245Y-109588461D01*
X118850000Y-109587500D01*
X119400000Y-109587500D01*
X119409755Y-109588461D01*
G37*
G36*
X119409755Y-109600961D02*
G01*
X119419134Y-109603806D01*
X119427779Y-109608427D01*
X119435355Y-109614645D01*
X119441573Y-109622221D01*
X119446194Y-109630866D01*
X119449039Y-109640245D01*
X119450000Y-109650000D01*
X119450000Y-110150000D01*
X119449039Y-110159755D01*
X119446194Y-110169134D01*
X119441573Y-110177779D01*
X119435355Y-110185355D01*
X119427779Y-110191573D01*
X119419134Y-110196194D01*
X119409755Y-110199039D01*
X119400000Y-110200000D01*
X119225000Y-110200000D01*
X119215245Y-110199039D01*
X119205866Y-110196194D01*
X119197221Y-110191573D01*
X119189645Y-110185355D01*
X119183427Y-110177779D01*
X119178806Y-110169134D01*
X119175961Y-110159755D01*
X119175000Y-110150000D01*
X119175000Y-109650000D01*
X119175961Y-109640245D01*
X119178806Y-109630866D01*
X119183427Y-109622221D01*
X119189645Y-109614645D01*
X119197221Y-109608427D01*
X119205866Y-109603806D01*
X119215245Y-109600961D01*
X119225000Y-109600000D01*
X119400000Y-109600000D01*
X119409755Y-109600961D01*
G37*
G36*
X119859755Y-107800961D02*
G01*
X119869134Y-107803806D01*
X119877779Y-107808427D01*
X119885355Y-107814645D01*
X119891573Y-107822221D01*
X119896194Y-107830866D01*
X119899039Y-107840245D01*
X119900000Y-107850000D01*
X119900000Y-108350000D01*
X119899039Y-108359755D01*
X119896194Y-108369134D01*
X119891573Y-108377779D01*
X119885355Y-108385355D01*
X119877779Y-108391573D01*
X119869134Y-108396194D01*
X119859755Y-108399039D01*
X119850000Y-108400000D01*
X119700000Y-108400000D01*
X119690245Y-108399039D01*
X119680866Y-108396194D01*
X119672221Y-108391573D01*
X119664645Y-108385355D01*
X119658427Y-108377779D01*
X119653806Y-108369134D01*
X119650961Y-108359755D01*
X119650000Y-108350000D01*
X119650000Y-107850000D01*
X119650961Y-107840245D01*
X119653806Y-107830866D01*
X119658427Y-107822221D01*
X119664645Y-107814645D01*
X119672221Y-107808427D01*
X119680866Y-107803806D01*
X119690245Y-107800961D01*
X119700000Y-107800000D01*
X119850000Y-107800000D01*
X119859755Y-107800961D01*
G37*
G36*
X119859755Y-108610961D02*
G01*
X119869134Y-108613806D01*
X119877779Y-108618427D01*
X119885355Y-108624645D01*
X119891573Y-108632221D01*
X119896194Y-108640866D01*
X119899039Y-108650245D01*
X119900000Y-108660000D01*
X119900000Y-108840000D01*
X119899039Y-108849755D01*
X119896194Y-108859134D01*
X119891573Y-108867779D01*
X119885355Y-108875355D01*
X119877779Y-108881573D01*
X119869134Y-108886194D01*
X119859755Y-108889039D01*
X119850000Y-108890000D01*
X118890000Y-108890000D01*
X118880245Y-108889039D01*
X118870866Y-108886194D01*
X118862221Y-108881573D01*
X118854645Y-108875355D01*
X118848427Y-108867779D01*
X118843806Y-108859134D01*
X118840961Y-108849755D01*
X118840000Y-108840000D01*
X118840000Y-108660000D01*
X118840961Y-108650245D01*
X118843806Y-108640866D01*
X118848427Y-108632221D01*
X118854645Y-108624645D01*
X118862221Y-108618427D01*
X118870866Y-108613806D01*
X118880245Y-108610961D01*
X118890000Y-108610000D01*
X119850000Y-108610000D01*
X119859755Y-108610961D01*
G37*
G36*
X119859755Y-109110961D02*
G01*
X119869134Y-109113806D01*
X119877779Y-109118427D01*
X119885355Y-109124645D01*
X119891573Y-109132221D01*
X119896194Y-109140866D01*
X119899039Y-109150245D01*
X119900000Y-109160000D01*
X119900000Y-109340000D01*
X119899039Y-109349755D01*
X119896194Y-109359134D01*
X119891573Y-109367779D01*
X119885355Y-109375355D01*
X119877779Y-109381573D01*
X119869134Y-109386194D01*
X119859755Y-109389039D01*
X119850000Y-109390000D01*
X118890000Y-109390000D01*
X118880245Y-109389039D01*
X118870866Y-109386194D01*
X118862221Y-109381573D01*
X118854645Y-109375355D01*
X118848427Y-109367779D01*
X118843806Y-109359134D01*
X118840961Y-109349755D01*
X118840000Y-109340000D01*
X118840000Y-109160000D01*
X118840961Y-109150245D01*
X118843806Y-109140866D01*
X118848427Y-109132221D01*
X118854645Y-109124645D01*
X118862221Y-109118427D01*
X118870866Y-109113806D01*
X118880245Y-109110961D01*
X118890000Y-109110000D01*
X119850000Y-109110000D01*
X119859755Y-109110961D01*
G37*
G36*
X119859755Y-109600961D02*
G01*
X119869134Y-109603806D01*
X119877779Y-109608427D01*
X119885355Y-109614645D01*
X119891573Y-109622221D01*
X119896194Y-109630866D01*
X119899039Y-109640245D01*
X119900000Y-109650000D01*
X119900000Y-110150000D01*
X119899039Y-110159755D01*
X119896194Y-110169134D01*
X119891573Y-110177779D01*
X119885355Y-110185355D01*
X119877779Y-110191573D01*
X119869134Y-110196194D01*
X119859755Y-110199039D01*
X119850000Y-110200000D01*
X119700000Y-110200000D01*
X119690245Y-110199039D01*
X119680866Y-110196194D01*
X119672221Y-110191573D01*
X119664645Y-110185355D01*
X119658427Y-110177779D01*
X119653806Y-110169134D01*
X119650961Y-110159755D01*
X119650000Y-110150000D01*
X119650000Y-109650000D01*
X119650961Y-109640245D01*
X119653806Y-109630866D01*
X119658427Y-109622221D01*
X119664645Y-109614645D01*
X119672221Y-109608427D01*
X119680866Y-109603806D01*
X119690245Y-109600961D01*
X119700000Y-109600000D01*
X119850000Y-109600000D01*
X119859755Y-109600961D01*
G37*
G36*
X120309755Y-107800961D02*
G01*
X120319134Y-107803806D01*
X120327779Y-107808427D01*
X120335355Y-107814645D01*
X120341573Y-107822221D01*
X120346194Y-107830866D01*
X120349039Y-107840245D01*
X120350000Y-107850000D01*
X120350000Y-108350000D01*
X120349039Y-108359755D01*
X120346194Y-108369134D01*
X120341573Y-108377779D01*
X120335355Y-108385355D01*
X120327779Y-108391573D01*
X120319134Y-108396194D01*
X120309755Y-108399039D01*
X120300000Y-108400000D01*
X120150000Y-108400000D01*
X120140245Y-108399039D01*
X120130866Y-108396194D01*
X120122221Y-108391573D01*
X120114645Y-108385355D01*
X120108427Y-108377779D01*
X120103806Y-108369134D01*
X120100961Y-108359755D01*
X120100000Y-108350000D01*
X120100000Y-107850000D01*
X120100961Y-107840245D01*
X120103806Y-107830866D01*
X120108427Y-107822221D01*
X120114645Y-107814645D01*
X120122221Y-107808427D01*
X120130866Y-107803806D01*
X120140245Y-107800961D01*
X120150000Y-107800000D01*
X120300000Y-107800000D01*
X120309755Y-107800961D01*
G37*
G36*
X120309755Y-109600961D02*
G01*
X120319134Y-109603806D01*
X120327779Y-109608427D01*
X120335355Y-109614645D01*
X120341573Y-109622221D01*
X120346194Y-109630866D01*
X120349039Y-109640245D01*
X120350000Y-109650000D01*
X120350000Y-110150000D01*
X120349039Y-110159755D01*
X120346194Y-110169134D01*
X120341573Y-110177779D01*
X120335355Y-110185355D01*
X120327779Y-110191573D01*
X120319134Y-110196194D01*
X120309755Y-110199039D01*
X120300000Y-110200000D01*
X120150000Y-110200000D01*
X120140245Y-110199039D01*
X120130866Y-110196194D01*
X120122221Y-110191573D01*
X120114645Y-110185355D01*
X120108427Y-110177779D01*
X120103806Y-110169134D01*
X120100961Y-110159755D01*
X120100000Y-110150000D01*
X120100000Y-109650000D01*
X120100961Y-109640245D01*
X120103806Y-109630866D01*
X120108427Y-109622221D01*
X120114645Y-109614645D01*
X120122221Y-109608427D01*
X120130866Y-109603806D01*
X120140245Y-109600961D01*
X120150000Y-109600000D01*
X120300000Y-109600000D01*
X120309755Y-109600961D01*
G37*
G36*
X120784755Y-107800961D02*
G01*
X120794134Y-107803806D01*
X120802779Y-107808427D01*
X120810355Y-107814645D01*
X120816573Y-107822221D01*
X120821194Y-107830866D01*
X120824039Y-107840245D01*
X120825000Y-107850000D01*
X120825000Y-108350000D01*
X120824039Y-108359755D01*
X120821194Y-108369134D01*
X120816573Y-108377779D01*
X120810355Y-108385355D01*
X120802779Y-108391573D01*
X120794134Y-108396194D01*
X120784755Y-108399039D01*
X120775000Y-108400000D01*
X120600000Y-108400000D01*
X120590245Y-108399039D01*
X120580866Y-108396194D01*
X120572221Y-108391573D01*
X120564645Y-108385355D01*
X120558427Y-108377779D01*
X120553806Y-108369134D01*
X120550961Y-108359755D01*
X120550000Y-108350000D01*
X120550000Y-107850000D01*
X120550961Y-107840245D01*
X120553806Y-107830866D01*
X120558427Y-107822221D01*
X120564645Y-107814645D01*
X120572221Y-107808427D01*
X120580866Y-107803806D01*
X120590245Y-107800961D01*
X120600000Y-107800000D01*
X120775000Y-107800000D01*
X120784755Y-107800961D01*
G37*
G36*
X120784755Y-109600961D02*
G01*
X120794134Y-109603806D01*
X120802779Y-109608427D01*
X120810355Y-109614645D01*
X120816573Y-109622221D01*
X120821194Y-109630866D01*
X120824039Y-109640245D01*
X120825000Y-109650000D01*
X120825000Y-110150000D01*
X120824039Y-110159755D01*
X120821194Y-110169134D01*
X120816573Y-110177779D01*
X120810355Y-110185355D01*
X120802779Y-110191573D01*
X120794134Y-110196194D01*
X120784755Y-110199039D01*
X120775000Y-110200000D01*
X120600000Y-110200000D01*
X120590245Y-110199039D01*
X120580866Y-110196194D01*
X120572221Y-110191573D01*
X120564645Y-110185355D01*
X120558427Y-110177779D01*
X120553806Y-110169134D01*
X120550961Y-110159755D01*
X120550000Y-110150000D01*
X120550000Y-109650000D01*
X120550961Y-109640245D01*
X120553806Y-109630866D01*
X120558427Y-109622221D01*
X120564645Y-109614645D01*
X120572221Y-109608427D01*
X120580866Y-109603806D01*
X120590245Y-109600961D01*
X120600000Y-109600000D01*
X120775000Y-109600000D01*
X120784755Y-109600961D01*
G37*
G36*
X121119755Y-108610961D02*
G01*
X121129134Y-108613806D01*
X121137779Y-108618427D01*
X121145355Y-108624645D01*
X121151573Y-108632221D01*
X121156194Y-108640866D01*
X121159039Y-108650245D01*
X121160000Y-108660000D01*
X121160000Y-108840000D01*
X121159039Y-108849755D01*
X121156194Y-108859134D01*
X121151573Y-108867779D01*
X121145355Y-108875355D01*
X121137779Y-108881573D01*
X121129134Y-108886194D01*
X121119755Y-108889039D01*
X121110000Y-108890000D01*
X120150000Y-108890000D01*
X120140245Y-108889039D01*
X120130866Y-108886194D01*
X120122221Y-108881573D01*
X120114645Y-108875355D01*
X120108427Y-108867779D01*
X120103806Y-108859134D01*
X120100961Y-108849755D01*
X120100000Y-108840000D01*
X120100000Y-108660000D01*
X120100961Y-108650245D01*
X120103806Y-108640866D01*
X120108427Y-108632221D01*
X120114645Y-108624645D01*
X120122221Y-108618427D01*
X120130866Y-108613806D01*
X120140245Y-108610961D01*
X120150000Y-108610000D01*
X121110000Y-108610000D01*
X121119755Y-108610961D01*
G37*
G36*
X121119755Y-109110961D02*
G01*
X121129134Y-109113806D01*
X121137779Y-109118427D01*
X121145355Y-109124645D01*
X121151573Y-109132221D01*
X121156194Y-109140866D01*
X121159039Y-109150245D01*
X121160000Y-109160000D01*
X121160000Y-109340000D01*
X121159039Y-109349755D01*
X121156194Y-109359134D01*
X121151573Y-109367779D01*
X121145355Y-109375355D01*
X121137779Y-109381573D01*
X121129134Y-109386194D01*
X121119755Y-109389039D01*
X121110000Y-109390000D01*
X120150000Y-109390000D01*
X120140245Y-109389039D01*
X120130866Y-109386194D01*
X120122221Y-109381573D01*
X120114645Y-109375355D01*
X120108427Y-109367779D01*
X120103806Y-109359134D01*
X120100961Y-109349755D01*
X120100000Y-109340000D01*
X120100000Y-109160000D01*
X120100961Y-109150245D01*
X120103806Y-109140866D01*
X120108427Y-109132221D01*
X120114645Y-109124645D01*
X120122221Y-109118427D01*
X120130866Y-109113806D01*
X120140245Y-109110961D01*
X120150000Y-109110000D01*
X121110000Y-109110000D01*
X121119755Y-109110961D01*
G37*
G36*
X121159755Y-108163461D02*
G01*
X121169134Y-108166306D01*
X121177779Y-108170927D01*
X121185355Y-108177145D01*
X121191573Y-108184721D01*
X121196194Y-108193366D01*
X121199039Y-108202745D01*
X121200000Y-108212500D01*
X121200000Y-108362500D01*
X121199039Y-108372255D01*
X121196194Y-108381634D01*
X121191573Y-108390279D01*
X121185355Y-108397855D01*
X121177779Y-108404073D01*
X121169134Y-108408694D01*
X121159755Y-108411539D01*
X121150000Y-108412500D01*
X120600000Y-108412500D01*
X120590245Y-108411539D01*
X120580866Y-108408694D01*
X120572221Y-108404073D01*
X120564645Y-108397855D01*
X120558427Y-108390279D01*
X120553806Y-108381634D01*
X120550961Y-108372255D01*
X120550000Y-108362500D01*
X120550000Y-108212500D01*
X120550961Y-108202745D01*
X120553806Y-108193366D01*
X120558427Y-108184721D01*
X120564645Y-108177145D01*
X120572221Y-108170927D01*
X120580866Y-108166306D01*
X120590245Y-108163461D01*
X120600000Y-108162500D01*
X121150000Y-108162500D01*
X121159755Y-108163461D01*
G37*
G36*
X121159755Y-109588461D02*
G01*
X121169134Y-109591306D01*
X121177779Y-109595927D01*
X121185355Y-109602145D01*
X121191573Y-109609721D01*
X121196194Y-109618366D01*
X121199039Y-109627745D01*
X121200000Y-109637500D01*
X121200000Y-109787500D01*
X121199039Y-109797255D01*
X121196194Y-109806634D01*
X121191573Y-109815279D01*
X121185355Y-109822855D01*
X121177779Y-109829073D01*
X121169134Y-109833694D01*
X121159755Y-109836539D01*
X121150000Y-109837500D01*
X120600000Y-109837500D01*
X120590245Y-109836539D01*
X120580866Y-109833694D01*
X120572221Y-109829073D01*
X120564645Y-109822855D01*
X120558427Y-109815279D01*
X120553806Y-109806634D01*
X120550961Y-109797255D01*
X120550000Y-109787500D01*
X120550000Y-109637500D01*
X120550961Y-109627745D01*
X120553806Y-109618366D01*
X120558427Y-109609721D01*
X120564645Y-109602145D01*
X120572221Y-109595927D01*
X120580866Y-109591306D01*
X120590245Y-109588461D01*
X120600000Y-109587500D01*
X121150000Y-109587500D01*
X121159755Y-109588461D01*
G37*
%TD*%
D11*
%TO.C,Y2*%
X151780200Y-123076200D03*
X151280200Y-123076200D03*
X150780200Y-123076200D03*
X150280200Y-123076200D03*
X149780200Y-123076200D03*
X149780200Y-127276200D03*
X150280200Y-127276200D03*
X150780200Y-127276200D03*
X151280200Y-127276200D03*
X151780200Y-127276200D03*
%TD*%
D12*
%TO.C,Q3*%
X138889706Y-121187812D03*
X138889706Y-123087812D03*
X140764706Y-122137812D03*
%TD*%
D13*
%TO.C,L17*%
X143245000Y-121500000D03*
X142275000Y-121500000D03*
%TD*%
D14*
%TO.C,R23*%
X151847000Y-89106200D03*
X151847000Y-90126200D03*
%TD*%
D15*
%TO.C,R6*%
X118351100Y-124093600D03*
X120176100Y-124093600D03*
%TD*%
D16*
%TO.C,R37*%
X128393546Y-128754988D03*
X127373546Y-128754988D03*
%TD*%
D17*
%TO.C,C86*%
X160720000Y-116300000D03*
X161680000Y-116300000D03*
%TD*%
D18*
%TO.C,C87*%
X131344394Y-126086100D03*
X130384394Y-126086100D03*
%TD*%
D19*
%TO.C,R27*%
X137773600Y-119903600D03*
X137773600Y-118883600D03*
%TD*%
D20*
%TO.C,U4*%
X161500000Y-72775000D03*
X161500000Y-73425000D03*
X161500000Y-74075000D03*
X161500000Y-74725000D03*
X161500000Y-75375000D03*
X161500000Y-76025000D03*
X161500000Y-76675000D03*
X161500000Y-77325000D03*
X161500000Y-77975000D03*
X161500000Y-78625000D03*
X161500000Y-79275000D03*
X161500000Y-79925000D03*
X161500000Y-80575000D03*
X161500000Y-81225000D03*
X168500000Y-81225000D03*
X168500000Y-80575000D03*
X168500000Y-79925000D03*
X168500000Y-79275000D03*
X168500000Y-78625000D03*
X168500000Y-77975000D03*
X168500000Y-77325000D03*
X168500000Y-76675000D03*
X168500000Y-76025000D03*
X168500000Y-75375000D03*
X168500000Y-74725000D03*
X168500000Y-74075000D03*
X168500000Y-73425000D03*
X168500000Y-72775000D03*
%TD*%
D21*
%TO.C,C99*%
X164250000Y-127400000D03*
X162350000Y-127400000D03*
%TD*%
D22*
%TO.C,C2*%
X147781400Y-118432200D03*
X147781400Y-119982200D03*
%TD*%
D23*
%TO.C,Y4*%
X152460000Y-81785000D03*
X157540000Y-81785000D03*
X157540000Y-77975000D03*
X152460000Y-77975000D03*
%TD*%
D18*
%TO.C,C85*%
X155830000Y-117600000D03*
X154870000Y-117600000D03*
%TD*%
D24*
%TO.C,L15*%
X135045106Y-121175612D03*
X137170106Y-121175612D03*
%TD*%
D25*
%TO.C,C58*%
X125263600Y-111343600D03*
X125263600Y-106343600D03*
%TD*%
D26*
%TO.C,D14*%
X182299200Y-117699000D03*
X186299200Y-117699000D03*
%TD*%
D27*
%TO.C,U14*%
X142624800Y-117216500D03*
X141674800Y-117216500D03*
X140724800Y-117216500D03*
X140724800Y-119491500D03*
X142624800Y-119491500D03*
%TD*%
D28*
%TO.C,U5*%
X172214890Y-127171120D03*
X173484890Y-127171120D03*
X174754890Y-127171120D03*
X176024890Y-127171120D03*
X176024890Y-122221120D03*
X174754890Y-122221120D03*
X173484890Y-122221120D03*
X172214890Y-122221120D03*
%TD*%
D17*
%TO.C,C7*%
X153520000Y-126751000D03*
X154480000Y-126751000D03*
%TD*%
D19*
%TO.C,R34*%
X159688460Y-121947170D03*
X159688460Y-120927170D03*
%TD*%
D13*
%TO.C,L23*%
X139912241Y-124595905D03*
X138942241Y-124595905D03*
%TD*%
D29*
%TO.C,U10*%
X163223600Y-119593600D03*
X163223600Y-122133600D03*
X163223600Y-124673600D03*
X168303600Y-124673600D03*
X168303600Y-122133600D03*
X168303600Y-119593600D03*
%TD*%
D17*
%TO.C,C91*%
X165020000Y-116300000D03*
X165980000Y-116300000D03*
%TD*%
D30*
%TO.C,L16*%
X157230000Y-129550000D03*
X159370000Y-129550000D03*
%TD*%
D17*
%TO.C,C55*%
X145643600Y-131963600D03*
X146603600Y-131963600D03*
%TD*%
%TO.C,C75*%
X158420000Y-131750000D03*
X159380000Y-131750000D03*
%TD*%
D31*
%TO.C,C74*%
X117013600Y-100143600D03*
X117013600Y-102043600D03*
%TD*%
D21*
%TO.C,C79*%
X159576280Y-127103690D03*
X157676280Y-127103690D03*
%TD*%
%TO.C,C8*%
X126150000Y-72775000D03*
X124250000Y-72775000D03*
%TD*%
D16*
%TO.C,R2*%
X150105200Y-116286200D03*
X149085200Y-116286200D03*
%TD*%
D32*
%TO.C,D11*%
X143726100Y-87843600D03*
X145301100Y-87843600D03*
%TD*%
%TO.C,D10*%
X151976100Y-87843600D03*
X153551100Y-87843600D03*
%TD*%
D33*
%TO.C,Y1*%
X151198400Y-120307200D03*
X151198400Y-118107200D03*
X149498400Y-118107200D03*
X149498400Y-120307200D03*
%TD*%
D34*
%TO.C,C98*%
X140928600Y-125620893D03*
X140928600Y-126580893D03*
%TD*%
D19*
%TO.C,R35*%
X142733600Y-133003600D03*
X142733600Y-131983600D03*
%TD*%
D34*
%TO.C,C65*%
X139483600Y-116383600D03*
X139483600Y-117343600D03*
%TD*%
D35*
%TO.C,C103*%
X127798546Y-131758594D03*
X126248546Y-131758594D03*
%TD*%
D17*
%TO.C,C97*%
X169220000Y-116300000D03*
X170180000Y-116300000D03*
%TD*%
D19*
%TO.C,R3*%
X147263600Y-123853600D03*
X147263600Y-122833600D03*
%TD*%
D36*
%TO.C,C112*%
X171225000Y-73425000D03*
X172775000Y-73425000D03*
%TD*%
D19*
%TO.C,R30*%
X175000000Y-119310000D03*
X175000000Y-118290000D03*
%TD*%
D17*
%TO.C,C60*%
X148693600Y-130963600D03*
X149653600Y-130963600D03*
%TD*%
D14*
%TO.C,R24*%
X143668200Y-89436400D03*
X143668200Y-90456400D03*
%TD*%
D18*
%TO.C,C83*%
X157780000Y-120250000D03*
X156820000Y-120250000D03*
%TD*%
D37*
%TO.C,R45*%
X175825000Y-76500000D03*
X174175000Y-76500000D03*
%TD*%
D38*
%TO.C,R4*%
X153885000Y-125608000D03*
X154905000Y-125608000D03*
%TD*%
D13*
%TO.C,L24*%
X139893000Y-126701588D03*
X138923000Y-126701588D03*
%TD*%
D34*
%TO.C,C95*%
X166900000Y-116300000D03*
X166900000Y-117260000D03*
%TD*%
D39*
%TO.C,R44*%
X157375000Y-75375000D03*
X159025000Y-75375000D03*
%TD*%
D18*
%TO.C,C96*%
X139908600Y-125643600D03*
X138948600Y-125643600D03*
%TD*%
D37*
%TO.C,R40*%
X140825000Y-82500000D03*
X139175000Y-82500000D03*
%TD*%
D34*
%TO.C,C56*%
X148643600Y-131963600D03*
X148643600Y-132923600D03*
%TD*%
D35*
%TO.C,C104*%
X127988546Y-129958594D03*
X126438546Y-129958594D03*
%TD*%
D40*
%TO.C,U13*%
X141321100Y-133906100D03*
X141321100Y-132956100D03*
X141321100Y-132006100D03*
X139046100Y-132006100D03*
X139046100Y-133906100D03*
%TD*%
D22*
%TO.C,C1*%
X153421800Y-118484200D03*
X153421800Y-120034200D03*
%TD*%
D34*
%TO.C,C89*%
X132339662Y-126097888D03*
X132339662Y-127057888D03*
%TD*%
D17*
%TO.C,C71*%
X132427606Y-121175612D03*
X133387606Y-121175612D03*
%TD*%
D41*
%TO.C,D12*%
X127418600Y-98199900D03*
X127418600Y-99774900D03*
%TD*%
D19*
%TO.C,R25*%
X138490600Y-117345400D03*
X138490600Y-116325400D03*
%TD*%
D42*
%TO.C,D15*%
X134093600Y-132413600D03*
X134793600Y-132413600D03*
%TD*%
D18*
%TO.C,C3*%
X154155800Y-124033200D03*
X153195800Y-124033200D03*
%TD*%
D34*
%TO.C,C106*%
X134054900Y-134437200D03*
X134054900Y-135397200D03*
%TD*%
D43*
%TO.C,Q4*%
X159237500Y-118900000D03*
X159237500Y-117000000D03*
X157362500Y-117950000D03*
%TD*%
D34*
%TO.C,C88*%
X172000000Y-119420000D03*
X172000000Y-120380000D03*
%TD*%
D18*
%TO.C,C92*%
X131349794Y-128158500D03*
X130389794Y-128158500D03*
%TD*%
D14*
%TO.C,R28*%
X176177290Y-119152420D03*
X176177290Y-120172420D03*
%TD*%
D37*
%TO.C,R43*%
X173825000Y-82500000D03*
X172175000Y-82500000D03*
%TD*%
D17*
%TO.C,C105*%
X138513600Y-135123600D03*
X139473600Y-135123600D03*
%TD*%
%TO.C,C66*%
X145270000Y-121000000D03*
X146230000Y-121000000D03*
%TD*%
D36*
%TO.C,C109*%
X118685000Y-75300000D03*
X120235000Y-75300000D03*
%TD*%
D14*
%TO.C,R36*%
X137521100Y-134313600D03*
X137521100Y-135333600D03*
%TD*%
D36*
%TO.C,C118*%
X119225000Y-112800000D03*
X120775000Y-112800000D03*
%TD*%
%TO.C,C111*%
X171225000Y-78625000D03*
X172775000Y-78625000D03*
%TD*%
D44*
%TO.C,C57*%
X170800000Y-127880000D03*
X170800000Y-126920000D03*
%TD*%
D38*
%TO.C,R20*%
X170590000Y-129087799D03*
X171610000Y-129087799D03*
%TD*%
D45*
%TO.C,C84*%
X132108805Y-123026689D03*
X131429983Y-123705511D03*
%TD*%
D21*
%TO.C,C76*%
X135982606Y-119350612D03*
X134082606Y-119350612D03*
%TD*%
D46*
%TO.C,U12*%
X129439946Y-131808600D03*
X130389946Y-131808600D03*
X131339946Y-131808600D03*
X131339946Y-129533600D03*
X129439946Y-129533600D03*
%TD*%
D47*
%TO.C,L13*%
X149683600Y-131973600D03*
X149683600Y-132943600D03*
%TD*%
D35*
%TO.C,C116*%
X117775000Y-111900000D03*
X116225000Y-111900000D03*
%TD*%
D48*
%TO.C,U9*%
X155150000Y-129700000D03*
D49*
X154000000Y-129700000D03*
D48*
X153850000Y-131900000D03*
X155150000Y-131900000D03*
%TD*%
D25*
%TO.C,C59*%
X121867000Y-101133200D03*
X121867000Y-96133200D03*
%TD*%
D44*
%TO.C,C61*%
X123200000Y-116930000D03*
X123200000Y-115970000D03*
%TD*%
D47*
%TO.C,L22*%
X168300000Y-116300000D03*
X168300000Y-117270000D03*
%TD*%
D34*
%TO.C,C80*%
X144263600Y-120503600D03*
X144263600Y-121463600D03*
%TD*%
%TO.C,C102*%
X135801100Y-132303600D03*
X135801100Y-133263600D03*
%TD*%
D13*
%TO.C,L19*%
X131313600Y-125047312D03*
X130343600Y-125047312D03*
%TD*%
D50*
%TO.C,D13*%
X124171000Y-119994500D03*
X124171000Y-118419500D03*
%TD*%
D34*
%TO.C,C93*%
X142273600Y-122538600D03*
X142273600Y-123498600D03*
%TD*%
D16*
%TO.C,R32*%
X174460890Y-120378120D03*
X173440890Y-120378120D03*
%TD*%
D32*
%TO.C,D9*%
X147726100Y-87843600D03*
X149301100Y-87843600D03*
%TD*%
D34*
%TO.C,C5*%
X150196000Y-128912600D03*
X150196000Y-129872600D03*
%TD*%
D16*
%TO.C,R1*%
X152594400Y-116514800D03*
X151574400Y-116514800D03*
%TD*%
D34*
%TO.C,C90*%
X162700000Y-116300000D03*
X162700000Y-117260000D03*
%TD*%
%TO.C,C78*%
X115513600Y-101343600D03*
X115513600Y-102303600D03*
%TD*%
D51*
%TO.C,C68*%
X117013600Y-108293600D03*
X117013600Y-106393600D03*
%TD*%
D15*
%TO.C,R5*%
X118351100Y-139343600D03*
X120176100Y-139343600D03*
%TD*%
D52*
%TO.C,U8*%
X136994458Y-126029754D03*
D53*
X136906958Y-124529754D03*
D52*
X136994458Y-123029754D03*
%TD*%
D17*
%TO.C,C63*%
X174598360Y-129011600D03*
X175558360Y-129011600D03*
%TD*%
D44*
%TO.C,C115*%
X145850000Y-123330000D03*
X145850000Y-122370000D03*
%TD*%
D19*
%TO.C,R26*%
X127259800Y-102326200D03*
X127259800Y-101306200D03*
%TD*%
D51*
%TO.C,C72*%
X179500000Y-119750000D03*
X179500000Y-117850000D03*
%TD*%
D36*
%TO.C,C113*%
X151684999Y-75300000D03*
X153234999Y-75300000D03*
%TD*%
D54*
%TO.C,C4*%
X154148200Y-121950400D03*
X156048200Y-121950400D03*
%TD*%
D18*
%TO.C,C6*%
X148243600Y-124843600D03*
X147283600Y-124843600D03*
%TD*%
D27*
%TO.C,U7*%
X146150000Y-116612500D03*
X145200000Y-116612500D03*
X144250000Y-116612500D03*
X144250000Y-118887500D03*
X146150000Y-118887500D03*
%TD*%
D36*
%TO.C,C108*%
X138225000Y-73425000D03*
X139775000Y-73425000D03*
%TD*%
D47*
%TO.C,L12*%
X147613600Y-131963600D03*
X147613600Y-132933600D03*
%TD*%
D21*
%TO.C,C9*%
X159150000Y-72775000D03*
X157250000Y-72775000D03*
%TD*%
D34*
%TO.C,C64*%
X150723600Y-131973600D03*
X150723600Y-132933600D03*
%TD*%
D36*
%TO.C,C114*%
X177725000Y-76500000D03*
X179275000Y-76500000D03*
%TD*%
D14*
%TO.C,R22*%
X147529000Y-89233200D03*
X147529000Y-90253200D03*
%TD*%
D17*
%TO.C,C82*%
X153620000Y-116300000D03*
X154580000Y-116300000D03*
%TD*%
D55*
%TO.C,L18*%
X155515000Y-116300000D03*
X156485000Y-116300000D03*
%TD*%
D38*
%TO.C,R38*%
X170479494Y-131228652D03*
X171499494Y-131228652D03*
%TD*%
D44*
%TO.C,C70*%
X115513600Y-107080000D03*
X115513600Y-106120000D03*
%TD*%
D18*
%TO.C,C101*%
X139953600Y-128793600D03*
X138993600Y-128793600D03*
%TD*%
%TO.C,C100*%
X139936281Y-127750893D03*
X138976281Y-127750893D03*
%TD*%
D47*
%TO.C,L20*%
X164100000Y-116300000D03*
X164100000Y-117270000D03*
%TD*%
D56*
%TO.C,U11*%
X135131100Y-136151100D03*
X135781100Y-136151100D03*
X136431100Y-136151100D03*
X136431100Y-134476100D03*
X135781100Y-134476100D03*
X135131100Y-134476100D03*
%TD*%
D20*
%TO.C,U1*%
X128500000Y-72775000D03*
X128500000Y-73425000D03*
X128500000Y-74075000D03*
X128500000Y-74725000D03*
X128500000Y-75375000D03*
X128500000Y-76025000D03*
X128500000Y-76675000D03*
X128500000Y-77325000D03*
X128500000Y-77975000D03*
X128500000Y-78625000D03*
X128500000Y-79275000D03*
X128500000Y-79925000D03*
X128500000Y-80575000D03*
X128500000Y-81225000D03*
X135500000Y-81225000D03*
X135500000Y-80575000D03*
X135500000Y-79925000D03*
X135500000Y-79275000D03*
X135500000Y-78625000D03*
X135500000Y-77975000D03*
X135500000Y-77325000D03*
X135500000Y-76675000D03*
X135500000Y-76025000D03*
X135500000Y-75375000D03*
X135500000Y-74725000D03*
X135500000Y-74075000D03*
X135500000Y-73425000D03*
X135500000Y-72775000D03*
%TD*%
D39*
%TO.C,R41*%
X124375000Y-75375000D03*
X126025000Y-75375000D03*
%TD*%
D34*
%TO.C,C81*%
X142993600Y-124403600D03*
X142993600Y-125363600D03*
%TD*%
D17*
%TO.C,C67*%
X151733600Y-131973600D03*
X152693600Y-131973600D03*
%TD*%
D34*
%TO.C,C94*%
X132359394Y-128146100D03*
X132359394Y-129106100D03*
%TD*%
D23*
%TO.C,Y3*%
X119460000Y-81785000D03*
X124540000Y-81785000D03*
X124540000Y-77975000D03*
X119460000Y-77975000D03*
%TD*%
D14*
%TO.C,R31*%
X124237200Y-115940000D03*
X124237200Y-116960000D03*
%TD*%
D34*
%TO.C,C62*%
X126094506Y-101293814D03*
X126094506Y-102253814D03*
%TD*%
D36*
%TO.C,C107*%
X138225000Y-78625000D03*
X139775000Y-78625000D03*
%TD*%
D18*
%TO.C,C77*%
X160198480Y-125173290D03*
X159238480Y-125173290D03*
%TD*%
D16*
%TO.C,R39*%
X173533600Y-131333600D03*
X172513600Y-131333600D03*
%TD*%
D38*
%TO.C,R21*%
X172543560Y-129087800D03*
X173563560Y-129087800D03*
%TD*%
D36*
%TO.C,C117*%
X118925000Y-106000000D03*
X120475000Y-106000000D03*
%TD*%
D37*
%TO.C,R42*%
X142825000Y-76500000D03*
X141175000Y-76500000D03*
%TD*%
D14*
%TO.C,R29*%
X177675890Y-120380610D03*
X177675890Y-121400610D03*
%TD*%
D13*
%TO.C,L21*%
X131355851Y-127107654D03*
X130385851Y-127107654D03*
%TD*%
D36*
%TO.C,C110*%
X144725000Y-76500000D03*
X146275000Y-76500000D03*
%TD*%
D16*
%TO.C,R33*%
X155810000Y-119600000D03*
X154790000Y-119600000D03*
%TD*%
D17*
%TO.C,C73*%
X138793600Y-119893600D03*
X139753600Y-119893600D03*
%TD*%
D34*
%TO.C,C69*%
X177752090Y-122547120D03*
X177752090Y-123507120D03*
%TD*%
D39*
%TO.C,R46*%
X119175000Y-104400000D03*
X120825000Y-104400000D03*
%TD*%
M02*
