M48
; DRILL file KiCad 10.0.0 date 2026-10-03T19:51:01
; FORMAT={-:-/ absolute / metric / decimal}
; #@! TF.CreationDate,2026-10-03T19:51:01-05:00
; #@! TF.GenerationSoftware,Kicad,Pcbnew,10.0.0
; #@! TF.FileFunction,Plated,1,4,PTH
FMAT,2
METRIC
; #@! TA.AperFunction,Plated,PTH,ViaDrill
T1C0.300
; #@! TA.AperFunction,Plated,PTH,ComponentDrill
T2C0.508
; #@! TA.AperFunction,Plated,PTH,ComponentDrill
T3C0.840
; #@! TA.AperFunction,Plated,PTH,ComponentDrill
T4C1.000
; #@! TA.AperFunction,Plated,PTH,ComponentDrill
T5C1.020
; #@! TA.AperFunction,Plated,PTH,ComponentDrill
T6C3.180
%
G90
G05
T1
X103.0Y-72.0
X103.0Y-80.0
X103.0Y-88.0
X103.0Y-136.0
X103.0Y-145.0
X103.5Y-119.5
X103.5Y-127.5
X104.0Y-63.0
X112.0Y-64.0
X112.0Y-144.0
X114.65Y-68.2
X114.65Y-122.5
X115.014Y-134.844
X115.264Y-136.844
X115.3Y-68.85
X115.764Y-119.844
X115.95Y-108.3
X116.3Y-100.9
X116.5Y-112.65
X117.3Y-139.344
X117.5Y-77.975
X118.514Y-102.844
X120.0Y-64.0
X120.0Y-88.0
X120.0Y-107.1
X120.0Y-110.6
X120.0Y-128.0
X120.0Y-144.0
X120.05Y-105.5
X120.775Y-113.6
X121.06Y-75.3
X121.867Y-94.6
X122.2Y-116.93
X123.25Y-72.775
X124.375Y-74.3
X125.5Y-74.075
X125.514Y-120.694
X125.6Y-130.5
X126.0Y-81.785
X126.0Y-125.0
X126.0Y-128.0
X126.0Y-134.0
X126.0Y-137.0
X126.0Y-140.0
X126.0Y-143.0
X126.095Y-100.4
X126.7Y-105.5
X127.0Y-116.0
X127.1Y-74.725
X127.1Y-78.625
X127.2Y-111.344
X127.799Y-132.75
X128.0Y-64.0
X128.4Y-98.2
X128.4Y-102.2
X128.8Y-130.1
X129.0Y-112.5
X129.0Y-143.0
X129.55Y-86.5
X129.644Y-125.047
X129.684Y-126.086
X129.686Y-127.108
X129.69Y-128.159
X130.0Y-72.775
X130.0Y-76.025
X130.0Y-117.0
X130.0Y-137.0
X130.39Y-132.7
X131.0Y-89.8
X131.614Y-121.184
X132.0Y-113.0
X132.0Y-143.0
X133.444Y-132.414
X133.6Y-72.775
X133.6Y-77.325
X133.9Y-78.8
X134.05Y-133.6
X134.083Y-119.89
X134.105Y-136.197
X134.4Y-76.025
X134.5Y-112.5
X135.0Y-143.0
X135.682Y-118.212
X135.781Y-136.964
X136.0Y-64.0
X136.0Y-85.5
X136.384Y-87.8
X136.9Y-74.075
X136.9Y-79.275
X136.9Y-84.5
X137.1Y-135.25
X137.774Y-118.101
X137.8Y-78.625
X138.0Y-143.0
X138.223Y-126.702
X138.242Y-124.596
X138.249Y-125.644
X138.276Y-127.751
X139.559Y-123.8
X139.6Y-118.089
X140.0Y-134.1
X140.254Y-135.124
X140.5Y-78.625
X140.6Y-73.425
X140.725Y-117.054
X140.825Y-83.5
X141.0Y-112.0
X141.0Y-143.0
X141.175Y-75.5
X141.2Y-72.1
X141.675Y-118.2
X142.204Y-131.304
X142.994Y-126.084
X143.031Y-120.559
X143.2Y-118.284
X143.65Y-116.312
X143.814Y-120.104
X144.0Y-64.0
X144.0Y-131.8
X144.0Y-143.0
X144.64Y-122.206
X144.691Y-90.715
X144.725Y-75.5
X144.92Y-119.9
X145.3Y-83.5
X146.0Y-129.0
X146.0Y-137.0
X146.18Y-121.6
X147.0Y-143.0
X147.1Y-76.5
X147.624Y-133.714
X147.732Y-117.81
X148.189Y-90.658
X148.214Y-122.951
X149.18Y-122.082
X149.409Y-120.35
X149.434Y-129.919
X149.51Y-128.903
X150.0Y-137.0
X150.0Y-143.0
X150.171Y-115.651
X150.4Y-117.0
X150.5Y-77.975
X150.602Y-125.862
X151.161Y-118.064
X151.212Y-90.658
X152.0Y-64.0
X152.115Y-115.171
X152.634Y-117.167
X152.914Y-122.018
X152.914Y-122.958
X153.0Y-143.0
X153.3Y-115.7
X153.447Y-117.886
X154.0Y-128.65
X154.0Y-137.0
X154.06Y-75.3
X154.7Y-120.5
X154.92Y-124.059
X155.37Y-118.351
X155.4Y-115.4
X156.0Y-143.0
X156.15Y-131.9
X156.25Y-72.775
X156.704Y-88.8
X157.375Y-74.3
X157.849Y-125.646
X158.0Y-137.0
X158.25Y-124.5
X159.0Y-81.785
X159.0Y-143.0
X159.098Y-127.104
X159.244Y-83.5
X160.0Y-64.0
X160.0Y-104.0
X160.1Y-71.5
X160.1Y-74.725
X160.1Y-78.625
X160.1Y-117.35
X160.35Y-125.9
X160.5Y-120.95
X160.514Y-97.5
X161.784Y-85.5
X162.0Y-133.0
X162.0Y-137.0
X162.0Y-143.0
X162.5Y-129.0
X162.55Y-86.5
X163.0Y-72.775
X163.0Y-76.025
X163.35Y-117.5
X164.324Y-86.5
X164.75Y-117.5
X164.99Y-90.8
X165.0Y-143.0
X166.0Y-129.0
X166.0Y-133.0
X166.0Y-137.0
X166.6Y-72.775
X166.6Y-77.325
X167.4Y-76.025
X167.55Y-117.5
X168.0Y-64.0
X168.0Y-104.0
X168.0Y-143.0
X168.95Y-117.5
X169.0Y-85.5
X169.9Y-74.075
X169.9Y-79.275
X169.9Y-84.5
X170.0Y-133.0
X170.0Y-137.0
X170.8Y-78.625
X171.0Y-143.0
X171.3Y-121.0
X171.944Y-84.5
X172.167Y-118.852
X172.8Y-87.8
X173.5Y-78.625
X173.6Y-73.425
X173.825Y-83.5
X174.0Y-133.5
X174.0Y-137.0
X174.0Y-143.0
X174.175Y-75.5
X174.2Y-72.1
X174.484Y-90.8
X176.0Y-64.0
X176.0Y-87.5
X176.0Y-104.0
X176.11Y-129.002
X176.202Y-118.365
X176.726Y-127.811
X176.904Y-121.918
X177.0Y-143.0
X177.024Y-89.8
X177.725Y-75.5
X178.0Y-133.0
X178.0Y-137.0
X178.3Y-83.5
X180.0Y-143.0
X180.1Y-76.5
X180.214Y-120.594
X182.0Y-125.0
X182.0Y-129.0
X182.0Y-133.0
X182.0Y-137.0
X183.0Y-143.0
X184.0Y-64.0
X184.0Y-72.0
X184.0Y-80.0
X184.0Y-88.0
X184.0Y-104.0
X185.0Y-120.0
X186.0Y-125.0
X186.0Y-128.0
X186.0Y-131.0
X186.0Y-134.0
X186.0Y-137.0
X186.0Y-140.0
X186.0Y-143.0
X186.01Y-117.699
X192.0Y-72.0
X192.0Y-80.0
X192.0Y-104.0
X192.0Y-136.0
X192.5Y-95.0
X192.5Y-112.5
X193.0Y-88.0
X193.0Y-120.0
X193.0Y-128.0
T2
X161.573Y-119.594
X165.764Y-119.594
X165.764Y-120.864
X165.764Y-122.134
X165.764Y-123.404
X165.764Y-124.674
X169.955Y-122.134
X169.955Y-124.674
T3
X133.934Y-128.144
X133.934Y-130.684
X135.204Y-129.414
X136.474Y-128.144
X136.474Y-130.684
T4
X117.989Y-136.594
X118.072Y-121.189
X120.529Y-136.594
X120.612Y-121.189
X136.384Y-96.114
X136.384Y-113.894
X138.924Y-96.114
X138.924Y-113.894
X141.464Y-96.114
X141.464Y-113.894
X144.004Y-96.114
X144.004Y-113.894
X146.544Y-96.114
X146.544Y-113.894
X149.084Y-96.114
X149.084Y-113.894
X151.624Y-96.114
X151.624Y-113.894
X154.164Y-96.114
X154.164Y-113.894
X156.704Y-96.114
X156.704Y-113.894
X159.244Y-96.114
X159.244Y-113.894
X161.784Y-96.114
X161.784Y-113.894
X164.324Y-96.114
X164.324Y-113.894
X166.864Y-96.114
X166.864Y-113.894
X169.404Y-96.114
X169.404Y-113.894
X171.944Y-96.114
X171.944Y-113.894
X174.484Y-96.114
X174.484Y-113.894
X177.024Y-96.114
X177.024Y-113.894
X179.564Y-96.114
X179.564Y-113.894
X182.104Y-96.114
X182.104Y-113.894
X184.644Y-96.114
X184.644Y-113.894
X190.514Y-80.874
X190.514Y-83.414
X190.514Y-85.954
X190.514Y-88.494
X190.514Y-91.034
X190.514Y-93.574
X190.514Y-96.114
X190.514Y-98.654
X190.514Y-101.194
X190.514Y-103.734
X190.514Y-106.274
X190.514Y-108.814
X190.514Y-111.354
X190.514Y-113.894
X190.514Y-116.434
X190.514Y-118.974
X190.514Y-121.514
X190.514Y-124.054
X190.514Y-126.594
X190.514Y-129.134
T5
X105.594Y-72.624
X105.594Y-75.164
X105.594Y-77.704
X105.594Y-80.244
X105.594Y-82.784
X105.594Y-85.324
X105.594Y-87.864
X105.594Y-90.404
X105.594Y-92.944
X105.594Y-95.484
X105.594Y-98.024
X105.594Y-100.564
X105.594Y-103.104
X105.594Y-105.644
X105.594Y-108.184
X105.594Y-110.724
X105.594Y-113.264
X105.594Y-115.804
X105.594Y-118.344
X105.594Y-120.884
X105.594Y-123.424
X105.594Y-125.964
X105.594Y-128.504
X105.594Y-131.044
X105.594Y-133.584
X105.594Y-136.124
X108.134Y-72.624
X108.134Y-75.164
X108.134Y-77.704
X108.134Y-80.244
X108.134Y-82.784
X108.134Y-85.324
X108.134Y-87.864
X108.134Y-90.404
X108.134Y-92.944
X108.134Y-95.484
X108.134Y-98.024
X108.134Y-100.564
X108.134Y-103.104
X108.134Y-105.644
X108.134Y-108.184
X108.134Y-110.724
X108.134Y-113.264
X108.134Y-115.804
X108.134Y-118.344
X108.134Y-120.884
X108.134Y-123.424
X108.134Y-125.964
X108.134Y-128.504
X108.134Y-131.044
X108.134Y-133.584
X108.134Y-136.124
X110.674Y-72.624
X110.674Y-75.164
X110.674Y-77.704
X110.674Y-80.244
X110.674Y-82.784
X110.674Y-85.324
X110.674Y-87.864
X110.674Y-90.404
X110.674Y-92.944
X110.674Y-95.484
X110.674Y-98.024
X110.674Y-100.564
X110.674Y-103.104
X110.674Y-105.644
X110.674Y-108.184
X110.674Y-110.724
X110.674Y-113.264
X110.674Y-115.804
X110.674Y-118.344
X110.674Y-120.884
X110.674Y-123.424
X110.674Y-125.964
X110.674Y-128.504
X110.674Y-131.044
X110.674Y-133.584
X110.674Y-136.124
X113.214Y-72.624
X113.214Y-75.164
X113.214Y-77.704
X113.214Y-80.244
X113.214Y-82.784
X113.214Y-85.324
X113.214Y-87.864
X113.214Y-90.404
X113.214Y-92.944
X113.214Y-95.484
X113.214Y-98.024
X113.214Y-100.564
X113.214Y-103.104
X113.214Y-105.644
X113.214Y-108.184
X113.214Y-110.724
X113.214Y-113.264
X113.214Y-115.804
X113.214Y-118.344
X113.214Y-120.884
X113.214Y-123.424
X113.214Y-125.964
X113.214Y-128.504
X113.214Y-131.044
X113.214Y-133.584
X113.214Y-136.124
T6
X105.594Y-67.544
X105.594Y-141.204
X191.324Y-65.004
X191.324Y-145.014
M30
